<svg width="24" height="24" viewBox="0 0 24 24" fill="none" xmlns="http://www.w3.org/2000/svg">
<path fill-rule="evenodd" clip-rule="evenodd" d="M0 4C0 2.93913 0.421427 1.92172 1.17157 1.17157C1.92172 0.421427 2.93913 0 4 0H20C21.0609 0 22.0783 0.421427 22.8284 1.17157C23.5786 1.92172 24 2.93913 24 4V20C24 21.0609 23.5786 22.0783 22.8284 22.8284C22.0783 23.5786 21.0609 24 20 24H4C2.93913 24 1.92172 23.5786 1.17157 22.8284C0.421427 22.0783 0 21.0609 0 20V4ZM13.3333 6.66667C13.3333 6.31305 13.1929 5.97391 12.9428 5.72386C12.6928 5.47381 12.3536 5.33333 12 5.33333C11.6464 5.33333 11.3072 5.47381 11.0572 5.72386C10.8071 5.97391 10.6667 6.31305 10.6667 6.66667V17.3333C10.6667 17.687 10.8071 18.0261 11.0572 18.2761C11.3072 18.5262 11.6464 18.6667 12 18.6667C12.3536 18.6667 12.6928 18.5262 12.9428 18.2761C13.1929 18.0261 13.3333 17.687 13.3333 17.3333V6.66667ZM8 10.6667C8 10.313 7.85952 9.97391 7.60948 9.72386C7.35943 9.47381 7.02029 9.33333 6.66667 9.33333C6.31305 9.33333 5.97391 9.47381 5.72386 9.72386C5.47381 9.97391 5.33333 10.313 5.33333 10.6667V17.3333C5.33333 17.687 5.47381 18.0261 5.72386 18.2761C5.97391 18.5262 6.31305 18.6667 6.66667 18.6667C7.02029 18.6667 7.35943 18.5262 7.60948 18.2761C7.85952 18.0261 8 17.687 8 17.3333V10.6667ZM18.6667 14.6667C18.6667 14.313 18.5262 13.9739 18.2761 13.7239C18.0261 13.4738 17.687 13.3333 17.3333 13.3333C16.9797 13.3333 16.6406 13.4738 16.3905 13.7239C16.1405 13.9739 16 14.313 16 14.6667V17.3333C16 17.687 16.1405 18.0261 16.3905 18.2761C16.6406 18.5262 16.9797 18.6667 17.3333 18.6667C17.687 18.6667 18.0261 18.5262 18.2761 18.2761C18.5262 18.0261 18.6667 17.687 18.6667 17.3333V14.6667Z" fill="#535260"/>
</svg>
