<svg width="25" height="29" viewBox="0 0 25 29" fill="none" xmlns="http://www.w3.org/2000/svg">
<path d="M12.5 26L9.375 21.125H10.9375V17.875H14.0625V21.125H15.625L12.5 26Z" fill="#535260"/>
<path d="M23.4375 1.625V14.625H1.5625V1.625H23.4375ZM25 0H0V16.25H25V0Z" fill="#535260"/>
<path d="M12.5 3.25C13.7432 3.25 14.9355 3.76361 15.8146 4.67785C16.6936 5.59209 17.1875 6.83207 17.1875 8.125C17.1875 9.41793 16.6936 10.6579 15.8146 11.5721C14.9355 12.4864 13.7432 13 12.5 13H20.3125V11.375H21.875V4.875H20.3125V3.25H12.5Z" fill="#535260"/>
<path d="M7.8125 8.125C7.8125 6.83207 8.30636 5.59209 9.18544 4.67785C10.0645 3.76361 11.2568 3.25 12.5 3.25H4.6875V4.875H3.125V11.375H4.6875V13H12.5C11.2568 13 10.0645 12.4864 9.18544 11.5721C8.30636 10.6579 7.8125 9.41793 7.8125 8.125Z" fill="#535260"/>
<rect y="27" width="25" height="2" fill="#535260"/>
</svg>
