<svg width="30" height="30" viewBox="0 0 30 30" fill="none" xmlns="http://www.w3.org/2000/svg">
<path d="M30 26.25L24.375 30V28.125H15.4688L19.2188 24.375H24.375V22.5L30 26.25Z" fill="#535260"/>
<path d="M0 3.75L5.625 0V1.875H14.5312L10.7812 5.625H5.625V7.5L0 3.75Z" fill="#535260"/>
<path d="M18.2625 0L0 18.2625L11.7375 30L30 11.7375L18.2625 0ZM2.60625 18.2625L18.2625 2.60625L27.3937 11.7375L11.7375 27.3937L2.60625 18.2625Z" fill="#535260"/>
<path d="M7.81876 18.2625L6.50626 19.575L10.425 23.4937L11.7375 22.1812L13.125 23.475L18.2625 18.2625C17.3929 19.1068 16.2261 19.575 15.0141 19.566C13.8021 19.5571 12.6424 19.0717 11.7853 18.2147C10.9283 17.3576 10.4429 16.1978 10.4339 14.9859C10.425 13.7739 10.8932 12.6071 11.7375 11.7375L6.52501 16.875L7.81876 18.2625Z" fill="#535260"/>
<path d="M23.475 10.4437L19.5562 6.52499L18.2437 7.83749L16.875 6.52499L11.7375 11.7375C12.6071 10.8932 13.7739 10.425 14.9859 10.4339C16.1978 10.4429 17.3576 10.9283 18.2147 11.7853C19.0717 12.6423 19.5571 13.8021 19.566 15.0141C19.575 16.2261 19.1068 17.3929 18.2625 18.2625L23.475 13.125L22.1625 11.8125L23.475 10.4437Z" fill="#535260"/>
</svg>
