<svg width="133" height="67" viewBox="0 0 133 67" fill="none" xmlns="http://www.w3.org/2000/svg">
<path d="M1 65.5L5.44263 61.0574C5.48063 61.0194 5.52451 60.9877 5.57257 60.9637L9.39443 59.0528C9.46386 59.0181 9.54041 59 9.61803 59H12.6396C12.8548 59 13.0459 58.8623 13.114 58.6581L14.5 54.5L16.4271 50.1639C16.4742 50.0579 16.5567 49.9716 16.6604 49.9198L20.4274 48.0363C20.4755 48.0123 20.5194 47.9806 20.5574 47.9426L23.1128 45.3872C23.3207 45.1793 23.6623 45.1947 23.8505 45.4206L26 48L27.8536 49.8536C27.9473 49.9473 28 50.0745 28 50.2071V52.5C28 52.7761 28.2239 53 28.5 53H30.382C30.4596 53 30.5361 52.9819 30.6056 52.9472L33.5 51.5L36.2943 50.1028C36.4249 50.0376 36.5204 49.9185 36.5558 49.7769L37.4903 46.0389C37.4968 46.013 37.5053 45.9877 37.5158 45.9632L38.9816 42.5429C38.9938 42.5144 39.0034 42.4847 39.0101 42.4544L39.9797 38.0912C39.9931 38.0309 40.0176 37.9737 40.0518 37.9223L41.8516 35.2226C41.9443 35.0836 42.1004 35 42.2676 35H45.2929C45.4255 35 45.5527 34.9473 45.6464 34.8536L47.4565 33.0435C47.4854 33.0146 47.5106 32.9823 47.5317 32.9472L48.9251 30.6249C48.974 30.5433 49.0452 30.4774 49.1302 30.4349L51.7764 29.1118C51.9172 29.0414 52.0828 29.0414 52.2236 29.1118L54.8944 30.4472C54.9639 30.4819 55.0404 30.5 55.118 30.5H56.319C56.4359 30.5 56.5492 30.541 56.6391 30.6159L59.3609 32.8841C59.4508 32.959 59.5641 33 59.681 33H60.7597C60.9116 33 61.0552 32.931 61.1501 32.8123L62.9318 30.5852C62.9767 30.5291 63.009 30.4639 63.0265 30.3941L64.9735 22.6059C64.991 22.5361 65.0233 22.4709 65.0682 22.4148L66.7921 20.2598C66.918 20.1024 67.1261 20.036 67.3199 20.0914L70.4112 20.9746C70.4699 20.9914 70.525 21.0188 70.5739 21.0554L74.4351 23.9513C74.4781 23.9836 74.526 24.0087 74.577 24.0257L75.5635 24.3545C75.8102 24.4367 76.0788 24.3162 76.1812 24.0771L77.4184 21.1904C77.4707 21.0685 77.5692 20.9723 77.6923 20.9231L79.8381 20.0648C79.9429 20.0228 80.0305 19.9466 80.0865 19.8486L81.7342 16.9651C81.878 16.7136 82.2047 16.6364 82.4457 16.7971L83.4354 17.4569C83.4782 17.4855 83.5164 17.5204 83.5485 17.5606L85.4669 19.9586C85.4889 19.9861 85.5079 20.0159 85.5237 20.0474L86.5 22L87.805 25.48C87.9092 25.7579 88.2312 25.8844 88.4968 25.7516L90.8698 24.5651C90.9548 24.5226 91.026 24.4567 91.0749 24.3751L92.4683 22.0528C92.4894 22.0177 92.5146 21.9854 92.5435 21.9565L94.0472 20.4528C94.2772 20.2228 94.6621 20.2702 94.8295 20.5491L95.9538 22.4229C95.9843 22.4739 96.0238 22.519 96.0702 22.5561L98.4566 24.4653C98.4855 24.4884 98.5116 24.5145 98.5347 24.5434L100.5 27L101.941 28.9216C101.98 28.9734 102.029 29.0171 102.084 29.0504L104.381 30.4287C104.459 30.4754 104.548 30.5 104.638 30.5H106.14C106.355 30.5 106.546 30.3623 106.614 30.1581L107.5 27.5L108.982 22.5599C108.994 22.5201 109.011 22.482 109.032 22.4464L110.429 20.1188C110.475 20.041 110.5 19.9521 110.5 19.8615V15.0907C110.5 15.0307 110.511 14.9712 110.532 14.9151L111.968 11.0849C111.989 11.0288 112 10.9693 112 10.9093V10.8083C112 10.2706 112.733 10.1119 112.955 10.6014L114.48 13.9558C114.493 13.9852 114.509 14.0132 114.528 14.0395L116.85 17.2906C116.944 17.422 117.096 17.5 117.257 17.5H120.26C120.412 17.5 120.555 17.431 120.65 17.3123L122.404 15.12C122.466 15.0423 122.5 14.9458 122.5 14.8463V14.8463C122.5 14.325 123.248 14.2399 123.365 14.7478L124 17.5L125.836 23.7417C125.988 24.2597 126.74 24.2019 126.811 23.6667L127.5 18.5L129 11L130 6L131.5 1" stroke="url(#paint0_linear_2_235)" stroke-width="2.5"/>
<defs>
<linearGradient id="paint0_linear_2_235" x1="132" y1="0.999994" x2="-40" y2="83" gradientUnits="userSpaceOnUse">
<stop stop-color="#2F2D3D"/>
<stop offset="1" stop-color="#2F2D3D" stop-opacity="0"/>
</linearGradient>
</defs>
</svg>
