<svg width="30" height="30" viewBox="0 0 30 30" fill="none" xmlns="http://www.w3.org/2000/svg">
<path d="M27.5 6.875C27.5 6.37772 27.3025 5.90081 26.9508 5.54917C26.5992 5.19754 26.1223 5 25.625 5H4.375C3.87772 5 3.40081 5.19754 3.04917 5.54917C2.69754 5.90081 2.5 6.37772 2.5 6.875V12.5H27.5V6.875Z" stroke="#535260" stroke-width="1.5" stroke-linecap="round" stroke-linejoin="round"/>
<path d="M2.57001 24.3937L10.18 16.7062L14.2925 20.6437L19.3188 16.25L22.1188 18.98" stroke="#535260" stroke-width="1.5" stroke-linecap="round" stroke-linejoin="round"/>
<path d="M27.5 11.25V23.125C27.5 23.6223 27.3025 24.0992 26.9508 24.4508C26.5992 24.8025 26.1223 25 25.625 25H7.5" stroke="#535260" stroke-width="1.5" stroke-linecap="round" stroke-linejoin="round"/>
<path d="M11.945 8.75H23.195" stroke="#535260" stroke-width="1.5" stroke-linecap="round" stroke-linejoin="round"/>
<path d="M6.94376 8.75H8.19376" stroke="#535260" stroke-width="1.5" stroke-linecap="round" stroke-linejoin="round"/>
<path d="M2.5 11.25V16.875" stroke="#535260" stroke-width="1.5" stroke-linecap="round" stroke-linejoin="round"/>
</svg>
