<svg width="23" height="23" viewBox="0 0 23 23" fill="none" xmlns="http://www.w3.org/2000/svg">
<g clip-path="url(#clip0_2_88)">
<path d="M22.6128 12.8704H11.0802C10.4623 12.8228 9.85042 13.0205 9.3771 13.4206C8.90377 13.8208 8.60707 14.3912 8.55121 15.0085L8.55025 15.0171C8.60692 15.6425 8.90958 16.2198 9.39172 16.6222C9.87385 17.0245 10.496 17.219 11.1215 17.1628L11.1128 17.1638H22.6128C22.6852 17.1705 22.7582 17.1626 22.8275 17.1407C22.8969 17.1189 22.9611 17.0834 23.0165 17.0363C23.072 16.9893 23.1174 16.9317 23.1503 16.8668C23.1832 16.802 23.2028 16.7312 23.208 16.6587V13.3774C23.1892 13.2372 23.1202 13.1085 23.0137 13.0153C22.9073 12.922 22.7706 12.8706 22.6291 12.8704H22.6119H22.6128ZM11.0802 16.3569C10.8092 16.3569 10.5442 16.2765 10.3189 16.1259C10.0935 15.9753 9.91787 15.7613 9.81415 15.5109C9.71042 15.2605 9.68329 14.9849 9.73616 14.7191C9.78904 14.4532 9.91956 14.2091 10.1112 14.0174C10.3029 13.8258 10.5471 13.6952 10.8129 13.6424C11.0787 13.5895 11.3543 13.6166 11.6047 13.7203C11.8551 13.8241 12.0691 13.9997 12.2197 14.2251C12.3703 14.4504 12.4507 14.7154 12.4507 14.9864V14.9903C12.4507 15.7454 11.8383 16.3569 11.0841 16.3569H11.0802Z" fill="#535260"/>
<path d="M3.15771 0V6.13717H4.46871V3.51517C4.60096 3.54775 4.75429 3.56883 4.91146 3.57458H4.91529C5.38901 3.57332 5.84298 3.38464 6.17804 3.04976C6.5131 2.71488 6.70202 2.26101 6.70354 1.78729C6.70037 1.63171 6.67914 1.47702 6.64029 1.32633L6.64317 1.34071H13.823C13.7884 1.48593 13.7685 1.63426 13.7636 1.78346V1.78729C13.7648 2.26101 13.9535 2.71498 14.2884 3.05004C14.6233 3.3851 15.0772 3.57402 15.5509 3.57554C15.7119 3.56979 15.8662 3.54871 16.0137 3.51229L15.9984 3.51517V6.13717H17.341V0H3.15771Z" fill="#535260"/>
<path d="M17.9055 5.39156H19.574C19.449 5.02848 19.2299 4.70503 18.9392 4.45418C18.6485 4.20334 18.2964 4.03408 17.9189 3.96365L17.9055 3.96173V5.39156Z" fill="#535260"/>
<path d="M10.993 12.1555H22.4336V8.67004C22.3847 8.15301 22.1345 7.67592 21.7371 7.34159C21.3397 7.00727 20.8268 6.84248 20.309 6.88275H20.3157H2.14571C2.13024 6.86587 2.10908 6.85529 2.08629 6.85304C1.96031 6.79385 1.85247 6.70203 1.77394 6.5871C1.69541 6.47218 1.64907 6.33834 1.63971 6.19946V6.19754C1.65496 6.02517 1.72252 5.86158 1.83334 5.72867C1.94415 5.59576 2.09293 5.49988 2.25975 5.45388L2.2655 5.45292V3.93396C1.01296 3.99338 0 5.78067 0 8.0155V21.2137C0.0494416 21.7301 0.29949 22.2065 0.696411 22.5405C1.09333 22.8745 1.60545 23.0395 2.12271 23H2.116H20.286C20.801 23.038 21.3105 22.8732 21.7057 22.5407C22.1009 22.2081 22.3504 21.7343 22.401 21.2204L22.402 21.2127V17.7273H11.0247C9.17796 17.7273 7.68775 16.4757 7.68775 14.9567C7.68775 13.408 9.177 12.1565 10.994 12.1565L10.993 12.1555Z" fill="#535260"/>
</g>
<defs>
<clipPath id="clip0_2_88">
<rect width="23" height="23" fill="white"/>
</clipPath>
</defs>
</svg>
