<svg width="25" height="29" viewBox="0 0 25 29" fill="none" xmlns="http://www.w3.org/2000/svg">
<path d="M12.5 3L15.625 7.875H14.0625V11.125H10.9375V7.875L9.375 7.875L12.5 3Z" fill="#535260"/>
<path d="M1.5625 27.375L1.5625 14.375L23.4375 14.375V27.375L1.5625 27.375ZM0 29L25 29L25 12.75L0 12.75L0 29Z" fill="#535260"/>
<path d="M12.5 25.75C11.2568 25.75 10.0645 25.2364 9.18544 24.3221C8.30636 23.4079 7.8125 22.1679 7.8125 20.875C7.8125 19.5821 8.30636 18.3421 9.18544 17.4279C10.0645 16.5136 11.2568 16 12.5 16L4.6875 16V17.625H3.125L3.125 24.125H4.6875V25.75H12.5Z" fill="#535260"/>
<path d="M17.1875 20.875C17.1875 22.1679 16.6936 23.4079 15.8146 24.3221C14.9355 25.2364 13.7432 25.75 12.5 25.75H20.3125V24.125H21.875V17.625H20.3125V16L12.5 16C13.7432 16 14.9355 16.5136 15.8146 17.4279C16.6936 18.3421 17.1875 19.5821 17.1875 20.875Z" fill="#535260"/>
<rect x="25" y="2" width="25" height="2" transform="rotate(-180 25 2)" fill="#535260"/>
</svg>
