<svg xmlns="http://www.w3.org/2000/svg" width="1073.375" height="1237.936" viewBox="0 0 1073.375 1237.936">
  <g id="layer1" transform="translate(4.43 4.735)">
    <g id="g7226" transform="translate(2.245 2.974)">
      <path id="path7002" d="M1037.891,1596.24l1.2-610.676L509.077,683.214l530.009,301.753,525.229-301.155" transform="translate(-506.089 -374.29)" fill="none" stroke="#e7e7e9" stroke-width="5.333"/>
      <path id="path7000" d="M508.939,1464.346l-1.195-610.078,528.814-308.923,528.814,305.338,2.39,615.456-530.009,301.753L508.939,1464.346Z" transform="translate(-507.744 -545.344)" fill="none" stroke="#3fa0f1" stroke-width="13.334"/>
      <g id="g7124" transform="translate(59.211 443.586)">
        <path id="path7068" d="M572.342,803.851,534.169,758.84V744.4l38.173-1.091V760.7l-23.2-.262,23.2,26.34Z" transform="translate(-534.169 -743.312)"/>
        <path id="path7070" d="M577.07,818.677l38.173-1.247V802.995L577.07,758.139v17.385l23.2,26.34-23.2-.262v17.075Z" transform="translate(-480.942 -724.917)"/>
        <path id="rect7074" d="M558.156,755.58l33.789,19.369c2.138,1.226,3.849,4.69,3.849,7.795v7.761c0,3.1-1.711,4.607-3.849,3.381l-33.789-19.369c-2.139-1.226-3.849-4.69-3.849-7.795v-7.761C554.307,755.858,556.125,754.416,558.156,755.58Z" transform="translate(-509.183 -728.589)"/>
      </g>
      <path id="rect7076" d="M539.522,782.072,843.665,956.551a12.168,12.168,0,0,1,5.378,9.561v14.341c0,3.585-2.39,4.78-5.378,2.988L539.522,808.961a12.168,12.168,0,0,1-5.378-9.56V785.059C534.144,781.474,536.534,780.279,539.522,782.072Z" transform="translate(-474.989 -252.66)" fill="#6f9dce"/>
      <path id="rect7078" d="M539.522,801.6l426.637,244.39a12.168,12.168,0,0,1,5.378,9.56v14.341c0,3.585-2.39,4.78-5.378,2.988L539.522,828.492a12.169,12.169,0,0,1-5.378-9.56V804.591C534.144,801.6,536.534,800.408,539.522,801.6Z" transform="translate(-474.989 -227.974)" fill="#6f9dce"/>
      <path id="rect7080" d="M539.522,820.679l426.637,244.39a12.168,12.168,0,0,1,5.378,9.561v14.341c0,3.585-2.39,4.78-5.378,2.988L539.522,847.568a12.168,12.168,0,0,1-5.378-9.561V823.667C534.144,820.679,536.534,818.887,539.522,820.679Z" transform="translate(-474.989 -204.625)" fill="#6f9dce"/>
      <path id="rect7082" d="M539.522,839.673,724.159,945.436a12.168,12.168,0,0,1,5.378,9.56v14.341c0,3.585-2.39,4.78-5.378,2.988L539.522,866.562A12.168,12.168,0,0,1,534.144,857V842.661C534.144,839.075,536.534,837.88,539.522,839.673Z" transform="translate(-474.989 -181.194)" fill="#6f9dce"/>
      <path id="rect7084" d="M539.522,858.138l362.1,207.343a12.168,12.168,0,0,1,5.378,9.56v14.341c0,3.585-2.39,4.78-5.378,2.988l-362.1-207.343a12.168,12.168,0,0,1-5.378-9.561V861.125c0-2.988,2.39-4.183,5.378-2.988Z" transform="translate(-474.989 -157.832)" fill="#6f9dce"/>
      <path id="rect7086" d="M539.522,877.214l66.326,37.644a12.168,12.168,0,0,1,5.378,9.56v14.341c0,3.585-2.39,4.78-5.378,2.988L539.522,904.1a12.168,12.168,0,0,1-5.378-9.56V880.2C534.144,877.214,536.534,875.421,539.522,877.214Z" transform="translate(-474.989 -134.483)" fill="#6f9dce"/>
      <g id="g7118" transform="translate(59.198 821.111)">
        <path id="path7068-8" d="M575.865,981.519l-41.7-49.052V916.634l41.7-1.242V934.33l-25.342-.4,25.342,28.807v18.782Z" transform="translate(-534.163 -907.339)"/>
        <path id="path7070-7" d="M573.581,993.446l41.7-1.242V976.37l-41.7-49.052v18.938l25.342,28.653-25.342-.246Z" transform="translate(-485.258 -892.542)"/>
        <text id="_" data-name="/" transform="translate(54.28 87)" font-size="79" font-family="Arial-Black, Arial Black" font-weight="800"><tspan x="0" y="0">/</tspan></text>
      </g>
      <g id="g7183" transform="translate(683.125 603.711)">
        <g id="g7189">
          <path id="rect7147" d="M844.781,947.035l186.11-104.773c17.839-10.043,32.624-3.224,32.8,15.744l1.217,129.708c.176,18.689-14.058,42.125-32.163,52.318L846.637,1144.8c-17.839,10.042-32.624,3.224-32.8-15.744l-1.217-129.708C812.439,980.385,826.676,957.228,844.781,947.035Z" transform="translate(-812.616 -786.402)" fill="#3fa0f1"/>
          <path id="rect7177" d="M899.425,833.611l17.306-9.743c35.411-19.935,64.449-6,64.8,31.1l.749,79.777c.348,37.1-28.124,83.413-63.536,103.348l-17.306,9.743c-35.411,19.935-64.449,6-64.8-31.1l-.749-79.777C835.542,899.86,864.014,853.546,899.425,833.611Z" transform="translate(-783.744 -814.775)" fill="rgba(255,255,255,0)" stroke="#3fa0f1" stroke-linejoin="bevel" stroke-width="45.334"/>
          <ellipse id="path7179" cx="41.004" cy="25.518" rx="41.004" ry="25.518" transform="translate(83.853 226.303) rotate(-55.895)" fill="#2c6cea"/>
          <path id="rect7181" d="M869.669,903l14.644-8.244c3.727-2.1,6.685-.679,6.722,3.226l.419,44.63c.037,3.905-2.863,8.623-6.591,10.721l-14.644,8.244c-3.727,2.1-6.685.679-6.722-3.226l-.419-44.63C863.042,909.811,865.942,905.094,869.669,903Z" transform="translate(-750.007 -716.749)" fill="#2c6cea"/>
        </g>
      </g>
      <g id="text7201" transform="translate(240.33 125.496)">
        <path id="path7208" d="M738.377,703.3a174.941,174.941,0,0,1-31.452-14.967c-28.064-17.1-32.19-32.21-12.431-44.66l53.068-33.437c21.453-13.517,46.466-11.569,74.531,5.532A125.422,125.422,0,0,1,846.259,634.7l-12.42,7.826a102.627,102.627,0,0,0-23.092-18.969,77.752,77.752,0,0,0-11.334-5.507c-3.626-1.51-7.252-3.02-11.5-3.507a27.846,27.846,0,0,0-12.843-.129,37.869,37.869,0,0,0-13.278,5.2l-51.938,32.725c-12.984,8.181-9.5,18,9.89,29.817a149.986,149.986,0,0,0,31,13.989Z" transform="translate(-531.579 -601.352)"/>
        <path id="path7210" d="M780.048,734.075l-14.287-8.706L825.6,687.664c2.258-1.423,3.952-2.49,4.57-3.512s1.8-2.4,1.911-3.734c.673-1.689.272-3.333-1.715-5.243a35.626,35.626,0,0,0-7.545-6c-8.674-5.286-15.416-7.995-19.661-8.482a25.822,25.822,0,0,0-14.808,4.271l-59.842,37.705-13.777-8.4L834.983,618.51l13.777,8.4-47.422,29.88q14.151-6.071,36.348,7.455c9.695,5.908,14.58,11.683,14.2,16.35s-3.984,9.467-12.453,14.8l-60.406,38.061,1.021.622Z" transform="translate(-491.261 -580.065)"/>
        <path id="path7212" d="M810.8,740.915l-13.267-8.084,7.9-4.98c-7.23,3.291-18.272.761-32.049-7.634q-15.308-9.328-16.35-16.26c-.695-4.622,4.6-10.49,15.33-17.248,9.033-5.691,17.848-8.716,24.807-8.674s15.8,3.328,26.512,9.858l22.452,13.681,12.985-8.181c4.516-2.846,6.373-5.913,4.951-8.179-.858-2.622-4.885-5.776-12.029-10.129a203.994,203.994,0,0,0-27.771-14.124l11.291-7.114q17,8.261,29.248,15.723,19.135,11.66,19.412,18.126c.184,4.311-4.549,9.823-15.276,16.582Zm3.159-19.067,22.582-14.228-21.431-13.059c-6.633-4.042-11.334-5.507-15.069-5.684-3.224.134-8.761,2.358-14.971,6.271-5.646,3.557-9.141,7.025-9.869,9.38s2.226,5.554,7.328,8.664l9.185,5.6a37.771,37.771,0,0,0,7.252,3.02,24.326,24.326,0,0,0,7.925,1.331C809.556,723.361,811.706,723.271,813.964,721.848Z" transform="translate(-438.845 -536.223)"/>
        <path id="path7214" d="M902.812,686.167l-13.777-8.4,16.372-10.316,13.777,8.4Zm-97.1,61.182-13.777-8.4,82.988-52.289,13.777,8.4Z" transform="translate(-395.482 -519.337)"/>
        <path id="path7216" d="M873.306,777.9l-13.777-8.4L919.371,731.8c2.258-1.423,3.952-2.49,4.57-3.512s1.8-2.4,1.911-3.734c.673-1.689.271-3.333-1.715-5.243a35.63,35.63,0,0,0-7.545-6c-8.164-4.975-14.906-7.684-19.151-8.171s-9.728,1.07-14.809,4.271L822.79,747.12l-13.777-8.4L892,686.436l13.777,8.4-10.162,6.4q14.151-6.071,36.348,7.455c9.7,5.908,14.581,11.683,14.2,16.35s-3.984,9.467-12.453,14.8L873.305,777.9Z" transform="translate(-374.291 -495.789)"/>
        <path id="path7218" d="M679.294,745.724,615,706.547l111.216-70.075,14.8,9.017L641.089,708.45l49.5,30.16Z" transform="translate(-615.001 -557.779)"/>
        <path id="path7220" d="M761.405,676.2l-13.777-8.4L764,657.485l13.777,8.4Zm-97.1,61.182-13.777-8.4,82.988-52.289,13.777,8.4Z" transform="translate(-570.925 -531.709)"/>
        <path id="path7222" d="M731.9,767.931l-13.777-8.4,59.842-37.705c2.258-1.423,3.952-2.49,4.571-3.512s1.8-2.4,1.911-3.734c.673-1.689.271-3.333-1.715-5.244a35.65,35.65,0,0,0-7.546-6c-8.164-4.975-14.906-7.684-19.151-8.171s-9.728,1.07-14.808,4.271l-59.842,37.705-13.777-8.4,82.989-52.289,13.777,8.4-10.162,6.4q14.152-6.071,36.348,7.455c9.695,5.908,14.581,11.683,14.2,16.35s-3.984,9.467-12.453,14.8Z" transform="translate(-549.735 -508.161)"/>
        <path id="path7224" d="M774.356,806.8l-17.349-10.572,9.141-39.911-18.272.761L764.466,744.1l73.087-3.045,17.24,11.905-70.481,3.933L774.356,806.8Zm-53.577-32.648L707,765.759,827.25,689.993l13.777,8.4Z" transform="translate(-500.856 -491.375)"/>
      </g>
    </g>
  </g>
</svg>
