<svg xmlns="http://www.w3.org/2000/svg" width="357.087" height="314.199" viewBox="0 0 357.087 314.199">
  <g id="polygon" transform="translate(0 0.1)">
    <path id="Path_20" data-name="Path 20" d="M270.379,95.931c-6.526-3.729-14.917-3.729-22.376,0L195.792,126.7l-35.429,19.579-51.279,30.767c-6.526,3.729-14.917,3.729-22.376,0L46.617,152.8a22.726,22.726,0,0,1-11.188-19.579V86.608A23,23,0,0,1,46.617,67.029L86.708,43.72c6.526-3.729,14.917-3.729,22.376,0l40.091,24.241A22.726,22.726,0,0,1,160.363,87.54v30.767L195.792,97.8V66.1A23,23,0,0,0,184.6,46.517L110.016,2.7C103.49-1.032,95.1-1.032,87.64,2.7L11.188,47.449A20.509,20.509,0,0,0,0,66.1v87.64a23,23,0,0,0,11.188,19.579l75.52,43.82c6.526,3.729,14.917,3.729,22.376,0L160.363,187.3l35.429-20.512,51.279-29.835c6.526-3.729,14.917-3.729,22.376,0l40.091,23.309a22.726,22.726,0,0,1,11.188,19.579v46.617a23,23,0,0,1-11.188,19.579l-39.158,23.309c-6.526,3.729-14.917,3.729-22.376,0l-40.091-23.309a22.726,22.726,0,0,1-11.188-19.579V196.624L161.3,217.136V247.9a23,23,0,0,0,11.188,19.579L248,311.3c6.526,3.729,14.917,3.729,22.376,0l75.52-43.82A22.726,22.726,0,0,0,357.087,247.9V159.331A23,23,0,0,0,345.9,139.751Z" transform="translate(0 0)" fill="#8247e5"/>
  </g>
</svg>
