<svg xmlns="http://www.w3.org/2000/svg" width="641.656" height="649.063" viewBox="0 0 641.656 649.063">
  <g id="Group_938" transform="translate(-953.47 -231.963)">
    <g id="Group_931">
      <path id="Path_8573" d="M1423.2,289.1a413.2,413.2,0,0,0-45.6,54.1l-4.3-1.4a312.144,312.144,0,0,0-76.4-14.8c-7.8-.6-36.9-.6-46.4,0-28.7,1.9-50.7,6.2-75.7,14.9-1,.4-1.9.7-2.8,1a407.059,407.059,0,0,0-47.1-53.7,327.4,327.4,0,0,1,267-14.1c9.3,3.5,18.4,7.6,27.3,12Z" fill="#f00500"/>
      <path id="Path_8574" d="M1578,668.4a312.257,312.257,0,0,1-56,98.2,348.065,348.065,0,0,1-43.8,42.9,323.151,323.151,0,0,1-126.3,62.3,331,331,0,0,1-155.2,0,322.48,322.48,0,0,1-126.3-62.3,348.061,348.061,0,0,1-43.8-42.9,308.628,308.628,0,0,1-56-300.8,326.731,326.731,0,0,1,25.5-55c4.7-8,10.5-17,13.3-20.7,9.6,41.3,21.4,77.6,25.8,90.7a22.565,22.565,0,0,1-1.1,2.2c-23.3,47.2-35.9,92.7-38.9,141.1,0,.6-.1,1.3-.1,1.9-.8,14.5-.4,21.4,2,30.5,7.5,28.5,30.6,59.9,66.8,90.7,59.3,50.4,139.7,86.8,200.6,91,63.5,4.3,157.2-32.8,219.6-87a313.665,313.665,0,0,0,27.6-27.7c6.2-7.2,15.4-19.6,14.7-19.6-.2,0,0-.2.4-.4.3-.2.6-.5.4-.7-.1-.1.1-.4.4-.5s.5-.3.4-.5,0-.4.4-.5a.446.446,0,0,0,.3-.6c-.1-.2,0-.4.2-.4s.4-.3.4-.5.2-.5.4-.5a.43.43,0,0,0,.4-.4,10.463,10.463,0,0,1,1.3-2.3c1.5-2.3,7.5-13,8.3-14.8,5.7-12.9,9.3-24.4,11-35.9.8-5.5,1.3-15.6.9-18-.1-.4-.1-1.1-.2-2.2-.2-2-.3-5-.5-8-.2-4.5-.6-10.8-.9-13.9-4.3-45.4-15.9-82.5-37.9-121.8a34.689,34.689,0,0,1-2.2-4.2,5.9,5.9,0,0,1-.4-.8h0c3.1-9.3,15.8-48.2,25.9-92.7l.2.2,1.5,2c2.6,3.5,9.5,13.9,12.6,18.9a307.16,307.16,0,0,1,28.3,263Z" fill="#f00500"/>
      <path id="Path_8575" d="M1448.2,548.9c-.3,1.6-5,6.4-9.7,9.9-13.8,10.1-38.5,19.5-63.6,24-14.3,2.6-28.6,3-32.9.9-2.8-1.4-3.2-2.5-2.2-6.1,2.1-7.5,8.9-15.7,19.5-23.4,5.4-3.9,27.3-17.2,37.5-22.8,16.8-9.2,30.4-14.7,39.6-16,2.9-.4,6.4-.5,7.5,0,1.8.7,3.8,6,4.6,12.4C1448.9,531.2,1448.7,546.2,1448.2,548.9Z"/>
      <path id="Path_8576" d="M1212.6,582c-.6,1.2-3.6,2.5-7,3s-13.8.2-19.7-.5c-21.2-2.8-43.7-9.3-60.1-17.3-9.2-4.5-15.8-9-20.7-13.9l-2.8-2.9-.3-3.8c-.5-6.6-.4-17,.4-20.7a27.166,27.166,0,0,1,3.1-8.8c.8-1,.8-1,4.4-1,4.4,0,8.1.7,14.1,2.6,12.3,3.8,30.6,13,52.9,26.4,18.4,11,25.3,16.4,30.6,23.8C1211.1,573.5,1213.5,580,1212.6,582Z"/>
      <path id="Path_8577" d="M1354.2,721.2c0,.3-1.2,5.1-2.7,10.8s-2.7,10.3-2.7,10.5a17.128,17.128,0,0,1-3.2.1h-3.2L1338,753c-2.4,5.7-4.6,11-4.9,11.8l-.6,1.4-2.1-3.4-2.1-3.4V731.7l-.8.2c-1.7.4-13.8,2-19.1,2.5a272.544,272.544,0,0,1-65.7-1.4c-3.5-.5-6.5-.9-6.6-.8s0,6.5.2,14.4l.3,14.2-1.7,2.6c-.9,1.4-1.8,2.6-1.8,2.7-.3.3-1.3-1.3-3.6-5.9a67.58,67.58,0,0,1-5.6-15.2l-.7-2.9-3.1.2-3.1.3-.8-3.7c-.4-2-.9-5.1-1.1-6.8l-.3-3.2-2.6-2.3c-1.5-1.3-3-2.6-3.3-2.8a2.193,2.193,0,0,1-.7-1.7v-1.2l12.5.1,12.5.1.4,1.3.4,1.3,4.3.2c2.4.1,10,.3,16.8.5l12.5.3,3.2-5,3.3-5h4.2l-.1-10.4-.1-10.4-5.5-2.4c-17.7-7.8-28.1-16.7-32-27.5-.8-2.2-.8-3-1-13-.1-9.9-.1-10.8.6-13a14.537,14.537,0,0,1,10.3-10.2c1.7-.5,6.2-.5,29.8-.5l27.8.1,3.1,1.5c3.7,1.8,5.4,3.1,7.5,5.9,2.4,3.2,3.1,5.7,3.1,11.8,0,8.7-.6,16.2-1.5,19.2a41.469,41.469,0,0,1-5.8,11.5c-5,6.4-14.1,12.8-22.4,15.7l-2.4.9.1,10.5.1,10.5,2.2.2,2.2.2,3,4.5,2.9,4.5h13.4c7.4,0,13.9.1,14.5.2,1,.2,1.2.1,2.2-1.6l1.2-1.8H1343C1351.6,720.7,1354.2,720.9,1354.2,721.2Z"/>
      <path id="Path_8578" d="M1301.4,749.9c-1.9,1.1-3.2,1.6-3.5,1.4-.3-.1-1.7-1.3-3.2-2.4l-2.7-2.2-2.8,3c-6.1,6.6-6.3,6.9-8.1,7-2.8.3-3.4-.2-6.8-5.3-1.8-2.6-3.2-4.8-3.2-4.8s-1.3-.2-2.8-.3l-2.8-.3-1.3,2.7-1.3,2.7-2.3-.7a48.671,48.671,0,0,1-5.3-2.1l-3-1.5v-5.7l26.6.1,26.6.1.1,2.7C1305.7,747.5,1305.8,747.4,1301.4,749.9Z"/>
    </g>
    <path id="Path_8579" d="M1551.4,627.9c-.1-.4-.1-1.1-.2-2.2-24-2.6-92.5-4.2-156.1,48.3,0,0-20.5-94-116.5-94S1147,674,1147,674c-53.8-57.9-125.8-53.7-151.8-49.9,0,.6-.1,1.3-.1,1.9-.8,14.5-.4,21.4,2,30.5,7.5,28.5,30.6,59.9,66.8,90.7,59.3,50.4,139.7,86.8,200.6,91,63.5,4.3,157.2-32.8,219.6-87a313.665,313.665,0,0,0,27.6-27.7c6.2-7.2,15.4-19.6,14.7-19.6-.2,0,0-.2.4-.4.3-.2.6-.5.4-.7-.1-.1.1-.4.4-.5s.5-.3.4-.5,0-.4.4-.5a.446.446,0,0,0,.3-.6c-.1-.2,0-.4.2-.4s.4-.3.4-.5.2-.5.4-.5a.43.43,0,0,0,.4-.4,10.463,10.463,0,0,1,1.3-2.3c1.5-2.3,7.5-13,8.3-14.8,5.7-12.9,9.3-24.4,11-35.9C1551.3,640.4,1551.8,630.3,1551.4,627.9Zm-250,122c-1.9,1.1-3.2,1.6-3.5,1.4-.3-.1-1.7-1.3-3.2-2.4l-2.7-2.2-2.8,3c-6.1,6.6-6.3,6.9-8.1,7-2.8.3-3.4-.2-6.8-5.3-1.8-2.6-3.2-4.8-3.2-4.8s-1.3-.2-2.8-.3l-2.8-.3-1.3,2.7-1.3,2.7-2.3-.7a48.671,48.671,0,0,1-5.3-2.1l-3-1.5v-5.7l26.6.1,26.6.1.1,2.7C1305.7,747.5,1305.8,747.4,1301.4,749.9Zm50-18c-1.5,5.7-2.7,10.3-2.7,10.5a17.128,17.128,0,0,1-3.2.1h-3.2L1338,753c-2.4,5.7-4.6,11-4.9,11.8l-.6,1.4-2.1-3.4-2.1-3.4V731.7l-.8.2c-1.7.4-13.8,2-19.1,2.5a272.544,272.544,0,0,1-65.7-1.4c-3.5-.5-6.5-.9-6.6-.8s0,6.5.2,14.4l.3,14.2-1.7,2.6c-.9,1.4-1.8,2.6-1.8,2.7-.3.3-1.3-1.3-3.6-5.9a67.58,67.58,0,0,1-5.6-15.2l-.7-2.9-3.1.2-3.1.3-.8-3.7c-.4-2-.9-5.1-1.1-6.8l-.3-3.2-2.6-2.3c-1.5-1.3-3-2.6-3.3-2.8a2.193,2.193,0,0,1-.7-1.7v-1.2l12.5.1,12.5.1.4,1.3.4,1.3,4.3.2c2.4.1,10,.3,16.8.5l12.5.3,3.2-5,3.3-5h4.2l-.1-10.4-.1-10.4-5.5-2.4c-17.7-7.8-28.1-16.7-32-27.5-.8-2.2-.8-3-1-13-.1-9.9-.1-10.8.6-13a14.537,14.537,0,0,1,10.3-10.2c1.7-.5,6.2-.5,29.8-.5l27.8.1,3.1,1.5c3.7,1.8,5.4,3.1,7.5,5.9,2.4,3.2,3.1,5.7,3.1,11.8,0,8.7-.6,16.2-1.5,19.2a41.469,41.469,0,0,1-5.8,11.5c-5,6.4-14.1,12.8-22.4,15.7l-2.4.9.1,10.5.1,10.5,2.2.2,2.2.2,3,4.5,2.9,4.5h13.4c7.4,0,13.9.1,14.5.2,1,.2,1.2.1,2.2-1.6l1.2-1.8H1343c8.9,0,11.5.1,11.5.4C1354.2,721.4,1352.9,726.3,1351.4,731.9Z" fill="#fff"/>
    <path id="Path_8580" d="M995,624.1a92.484,92.484,0,0,0-10,1.9" fill="none"/>
    <path id="Path_8581" d="M1560.1,627s-3.2-.7-8.9-1.3" fill="none"/>
    <path id="Path_8582" d="M1550.6,617.7c-.2-4.5-.6-10.8-.9-13.9-4.3-45.4-15.9-82.5-37.9-121.8a34.689,34.689,0,0,1-2.2-4.2,5.9,5.9,0,0,1-.4-.8h0c3.1-9.3,15.8-48.2,25.9-92.7,13.7-60.4,22.4-131-4.2-152.2,0,0-46-3.4-107.6,57a413.2,413.2,0,0,0-45.6,54.1l-4.3-1.4A312.144,312.144,0,0,0,1297,327c-7.8-.6-36.9-.6-46.4,0-28.7,1.9-50.7,6.2-75.7,14.9-1,.4-1.9.7-2.8,1a407.059,407.059,0,0,0-47.1-53.7c-64.1-60.7-111.8-57.2-111.8-57.2-28.2,21.9-18.6,95.7-4,158.1,9.6,41.3,21.4,77.6,25.8,90.7a22.565,22.565,0,0,1-1.1,2.2c-23.3,47.2-35.9,92.7-38.9,141.1,26.1-3.8,98-8.1,151.9,49.9,0,0,35.6-94,131.6-94S1395,674,1395,674a213.133,213.133,0,0,1,156.1-48.3C1551,623.7,1550.8,620.7,1550.6,617.7ZM1053.9,443.1s-37.4-93.5-27.8-146.9h0c1.6-9,4.6-16.9,9.3-22.9,0,0,42.4,4.2,110.8,80.2,0,0-13,6.3-30.4,19.7a.349.349,0,0,1-.2.1c-18.9,14.5-43.1,37.5-61.7,69.8ZM1212.6,582c-.6,1.2-3.6,2.5-7,3s-13.8.2-19.7-.5c-21.2-2.8-43.7-9.3-60.1-17.3-9.2-4.5-15.8-9-20.7-13.9l-2.8-2.9-.3-3.8c-.5-6.6-.4-17,.4-20.7a27.166,27.166,0,0,1,3.1-8.8c.8-1,.8-1,4.4-1,4.4,0,8.1.7,14.1,2.6,12.3,3.8,30.6,13,52.9,26.4,18.4,11,25.3,16.4,30.6,23.8C1211.1,573.5,1213.5,580,1212.6,582Zm235.6-33.1c-.3,1.6-5,6.4-9.7,9.9-13.8,10.1-38.5,19.5-63.6,24-14.3,2.6-28.6,3-32.9.9-2.8-1.4-3.2-2.5-2.2-6.1,2.1-7.5,8.9-15.7,19.5-23.4,5.4-3.9,27.3-17.2,37.5-22.8,16.8-9.2,30.4-14.7,39.6-16,2.9-.4,6.4-.5,7.5,0,1.8.7,3.8,6,4.6,12.4C1448.9,531.2,1448.7,546.2,1448.2,548.9Zm-16.6-175.7-.2-.1c-16.8-13.4-29.4-19.7-29.4-19.7,66.1-76,107-80.2,107-80.2,4.5,6.1,7.4,13.9,9,22.9h0c9.3,53.4-26.8,147-26.8,147a238.19,238.19,0,0,0-59.6-69.9Z" fill="#ffa409"/>
    <path id="Path_8583" d="M1377.6,343.2c-.2.2-.3.5-.5.7" fill="none"/>
    <path id="Path_8584" d="M1509.1,476.9c-.5,1.4-.7,2.1-.7,2.1" fill="none"/>
    <g id="Group_934">
      <g id="Group_933">
        <g id="Group_932">
          <path id="Path_8585" d="M1518.1,296.1c-7.8-1-44.7-1.2-86.5,77.1l-.2-.1c-16.8-13.4-29.4-19.7-29.4-19.7,66.1-76,107-80.2,107-80.2C1513.6,279.3,1516.5,287.1,1518.1,296.1Z" fill="#ff9300"/>
        </g>
        <path id="Path_8586" d="M1491.3,443.1a237.258,237.258,0,0,0-59.7-69.9c41.8-78.3,78.6-78.1,86.5-77.1h0C1527.4,349.6,1491.3,443.1,1491.3,443.1Z" fill="#ff8300"/>
        <path id="Path_8587" d="M1519.6,296.4l-1.5-.3Z" fill="#ff8300"/>
      </g>
    </g>
    <path id="Path_8588" d="M1175.1,347.1c-1-1.4-2.1-2.8-3.1-4.2" fill="none"/>
    <path id="Path_8589" d="M1035,480.8c1.1,3.4,1.8,5.2,1.8,5.2" fill="none"/>
    <g id="Group_937">
      <g id="Group_936">
        <g id="Group_935">
          <path id="Path_8590" d="M1146.2,353.4s-13,6.3-30.4,19.7a.349.349,0,0,1-.2.1c-43.3-78.4-81.4-78.1-89.6-77.1,1.6-9,4.6-16.9,9.3-22.9C1035.4,273.2,1077.8,277.4,1146.2,353.4Z" fill="#ff9300"/>
        </g>
        <path id="Path_8591" d="M1115.7,373.2c-19,14.6-43.2,37.5-61.8,69.9,0,0-37.4-93.5-27.8-147h0C1034.2,295.1,1072.4,294.9,1115.7,373.2Z" fill="#ff8300"/>
        <path id="Path_8592" d="M1026.1,296.1c-.5.1-1.1.2-1.6.3Z" fill="#ff8300"/>
      </g>
    </g>
    <path id="Path_8593" d="M1390.1,495s-32,2-28-23,29-28,36-27,35,11,30,32-12,17-16,18S1390.1,495,1390.1,495Z" fill="#fff"/>
    <path id="Path_8594" d="M1154.1,495s-32,2-28-23,29-28,36-27,35,11,30,32-12,17-16,18S1154.1,495,1154.1,495Z" fill="#fff"/>
  </g>
</svg>
