<svg xmlns="http://www.w3.org/2000/svg" xmlns:xlink="http://www.w3.org/1999/xlink" width="397.74" height="311.7" viewBox="0 0 397.74 311.7">
  <defs>
    <linearGradient id="linear-gradient" x1="0.907" y1="1.512" x2="0.355" y2="-3.91" gradientUnits="objectBoundingBox">
      <stop offset="0" stop-color="#00ffa3"/>
      <stop offset="1" stop-color="#dc1fff"/>
    </linearGradient>
    <linearGradient id="linear-gradient-2" x1="0.666" y1="5.175" x2="0.114" y2="-0.247" xlink:href="#linear-gradient"/>
    <linearGradient id="linear-gradient-3" x1="0.786" y1="3.356" x2="0.234" y2="-2.067" xlink:href="#linear-gradient"/>
  </defs>
  <g id="solana" transform="translate(0.02)">
    <path id="Path_10" data-name="Path 10" d="M64.6,237.9a13.013,13.013,0,0,1,9.2-3.8H391.2a6.5,6.5,0,0,1,4.6,11.1l-62.7,62.7a13.013,13.013,0,0,1-9.2,3.8H6.5a6.5,6.5,0,0,1-4.6-11.1Z" fill="url(#linear-gradient)"/>
    <path id="Path_11" data-name="Path 11" d="M64.6,3.8A13.372,13.372,0,0,1,73.8,0H391.2a6.5,6.5,0,0,1,4.6,11.1L333.1,73.8a13.013,13.013,0,0,1-9.2,3.8H6.5A6.5,6.5,0,0,1,1.9,66.5Z" fill="url(#linear-gradient-2)"/>
    <path id="Path_12" data-name="Path 12" d="M333.1,120.1a13.013,13.013,0,0,0-9.2-3.8H6.5a6.5,6.5,0,0,0-4.6,11.1l62.7,62.7a13.013,13.013,0,0,0,9.2,3.8H391.2a6.5,6.5,0,0,0,4.6-11.1Z" fill="url(#linear-gradient-3)"/>
  </g>
</svg>
