<svg xmlns="http://www.w3.org/2000/svg" width="534.986" height="562.897" viewBox="0 0 534.986 562.897">
  <g id="tron" transform="translate(-1.55 0.001)">
    <path id="Path_26" data-name="Path 26" d="M529.259,169.577c-26.385-24.363-62.885-61.566-92.613-87.952l-1.759-1.231a33.6,33.6,0,0,0-9.763-5.453h0C353.444,61.573,19.844-.785,13.336.007a12.313,12.313,0,0,0-5.1,1.935L6.563,3.261A19.613,19.613,0,0,0,1.99,10.649l-.44,1.143V19C39.105,123.579,187.392,466.15,216.592,546.538c1.759,5.453,5.1,15.831,11.346,16.359h1.407c3.342,0,17.59-18.822,17.59-18.822S501.643,235.189,527.412,202.3a83.2,83.2,0,0,0,8.8-13.017A21.2,21.2,0,0,0,529.259,169.577ZM312.283,205.549,420.991,115.4l63.765,58.752Zm-42.217-5.893L82.905,46.269l302.817,55.849Zm16.887,40.194L478.511,208.98l-219,263.855ZM57.487,61.573,254.411,228.681l-28.5,244.329Z" transform="translate(0 0)" fill="#ff060a"/>
  </g>
</svg>
