<svg id="Layer_2" data-name="Layer 2" xmlns="http://www.w3.org/2000/svg" width="463.586" height="463.586" viewBox="0 0 463.586 463.586">
  <g id="Layer_1" data-name="Layer 1" transform="translate(0 0)">
    <g id="Page-1">
      <g id="wbtc_colour" data-name="wbtc colour">
        <path id="Shape" d="M98.819,23.157,86.09,35.886a180.2,180.2,0,0,1,0,243.206l12.729,12.729a198.4,198.4,0,0,0,0-268.961Z" transform="translate(279.186 74.134)" fill="#5a5564"/>
        <path id="Shape-2" data-name="Shape" d="M35.956,73.07a180.2,180.2,0,0,1,243.206,0l12.729-12.729a198.4,198.4,0,0,0-268.961,0Z" transform="translate(74.361 25.325)" fill="#5a5564"/>
        <path id="Shape-3" data-name="Shape" d="M73.069,278.8a180.2,180.2,0,0,1,0-243.079L60.341,22.99a198.4,198.4,0,0,0,0,268.961Z" transform="translate(25.325 74.556)" fill="#5a5564"/>
        <path id="Shape-4" data-name="Shape" d="M278.9,86.05a180.2,180.2,0,0,1-243.206,0L22.96,98.779a198.4,198.4,0,0,0,268.961,0Z" transform="translate(74.458 279.057)" fill="#5a5564"/>
        <path id="Shape-5" data-name="Shape" d="M197.71,101.761C195.165,75.2,172.253,66.29,143.273,63.574V27h-22.4V62.9H102.965V27H80.732V63.829H35.29V87.8s16.548-.3,16.293,0a11.583,11.583,0,0,1,12.729,9.844V198.458a7.85,7.85,0,0,1-2.716,5.473,7.765,7.765,0,0,1-5.77,1.952c.3.255-16.293,0-16.293,0L35.29,232.656H80.308v37.423h22.4V233.208h17.905v36.7h22.445v-37c37.847-2.291,64.238-11.626,67.548-47.054,2.673-28.513-10.735-41.242-32.162-46.376C191.473,133.074,199.535,121.194,197.71,101.761Zm-31.4,79.683c0,27.834-47.691,24.652-62.881,24.652V156.707C118.622,156.75,166.313,152.379,166.313,181.444Zm-10.4-69.585c0,25.458-39.8,22.36-52.443,22.36V89.329C116.118,89.329,155.917,85.341,155.917,111.859Z" transform="translate(114.444 87.56)" fill="#f09242"/>
        <path id="Shape-6" data-name="Shape" d="M231.75,463.586C103.788,463.586.016,359.826,0,231.821,0,103.788,103.76.016,231.765,0,359.8,0,463.57,103.76,463.586,231.765c0,128.071-103.82,231.86-231.863,231.821Zm0-445.511C113.821,18.169,18.283,113.821,18.33,231.75S113.99,445.256,231.92,445.256,445.464,349.68,445.511,231.75A213.59,213.59,0,0,0,231.75,18.075Z" transform="translate(0 0)" fill="#282138"/>
      </g>
    </g>
  </g>
</svg>
